# xmcd
#
# Track frame offsets:
#	150
#	13515
#	28752
#	43825
#	54802
#	69697
#	82925
#	95207
#	105500
#	116382
#	128430
#	137507
#	156907
#	174425
#	186872
#	198992
#
# Disc length: 2827 seconds
#
# Revision: 0
# Processed by: cddbd v1.4PL0 Copyright (c) Steve Scherf et al.
# Submitted via: dBpowerAMP V4.0
#
DISCID=cb0b0910
DTITLE=Dionne Warwick - Windows of the world
DYEAR=1900
DGENRE=Blues
TTITLE0=I say a little prayer
TTITLE1=Walk little Dolly
TTITLE2=The beginning of loneliness
TTITLE3=Another night
TTITLE4=The windows of the world
TTITLE5=This empty place
TTITLE6=Don t make me over
TTITLE7=It s love that really counts
TTITLE8=Unlucky
TTITLE9=I smiled yesterday
TTITLE10=The love of a boy
TTITLE11=Somewhere
TTITLE12=You re gonna hear from me
TTITLE13=Love
TTITLE14=What s good about goodby
TTITLE15=(There s) always something there to remind me
EXTD=
EXTT0=
EXTT1=
EXTT2=
EXTT3=
EXTT4=
EXTT5=
EXTT6=
EXTT7=
EXTT8=
EXTT9=
EXTT10=
EXTT11=
EXTT12=
EXTT13=
EXTT14=
EXTT15=
PLAYORDER=
